<svg xmlns="http://www.w3.org/2000/svg" width="36" height="36" viewBox="0 0 36 36">
  <g id="instagram" transform="translate(-1181 -5682)">
    <circle id="Ellipse_25" data-name="Ellipse 25" cx="18" cy="18" r="18" transform="translate(1181 5682)" fill="#fff"/>
    <g id="Frame" transform="translate(1188 5689)">
      <g id="Group">
        <path id="Vector" d="M9.4,1.7c2.521,0,2.8,0,3.8.046a5.012,5.012,0,0,1,1.742.321,3.426,3.426,0,0,1,1.1.687,2.787,2.787,0,0,1,.688,1.1,5.012,5.012,0,0,1,.321,1.742C17.1,6.6,17.1,6.875,17.1,9.4s0,2.8-.046,3.8a5.012,5.012,0,0,1-.321,1.742,3.121,3.121,0,0,1-1.788,1.787,5.012,5.012,0,0,1-1.742.321c-1.008.046-1.283.046-3.8.046s-2.8,0-3.8-.046a5.012,5.012,0,0,1-1.742-.321,3.427,3.427,0,0,1-1.1-.687,2.787,2.787,0,0,1-.687-1.1A5.012,5.012,0,0,1,1.742,13.2C1.7,12.192,1.7,11.917,1.7,9.4s0-2.8.046-3.8A5.012,5.012,0,0,1,2.062,3.85a3.426,3.426,0,0,1,.687-1.1,2.787,2.787,0,0,1,1.1-.687,5.012,5.012,0,0,1,1.742-.321C6.6,1.7,6.921,1.7,9.4,1.7ZM9.4,0C6.829,0,6.508,0,5.5.046A5.937,5.937,0,0,0,3.208.5,4.65,4.65,0,0,0,1.6,1.558,4.96,4.96,0,0,0,.5,3.208,6.937,6.937,0,0,0,.046,5.5C0,6.508,0,6.829,0,9.4s0,2.887.046,3.9A5.937,5.937,0,0,0,.5,15.583a4.353,4.353,0,0,0,1.1,1.65,4.96,4.96,0,0,0,1.65,1.1,6.937,6.937,0,0,0,2.292.458c1.008.046,1.329.046,3.9.046s2.887,0,3.9-.046a5.937,5.937,0,0,0,2.292-.458,4.782,4.782,0,0,0,2.75-2.75,6.937,6.937,0,0,0,.458-2.292c.046-1.008.046-1.329.046-3.9s0-2.887-.046-3.9a5.937,5.937,0,0,0-.458-2.292,4.028,4.028,0,0,0-1.1-1.65,4.96,4.96,0,0,0-1.65-1.1A6.937,6.937,0,0,0,13.337,0Z" transform="translate(1.558 1.558)" fill="#2b2b39"/>
        <path id="Vector-2" data-name="Vector" d="M4.813,0A4.813,4.813,0,1,0,9.625,4.813,4.754,4.754,0,0,0,4.813,0Zm0,7.975A3.117,3.117,0,1,1,7.929,4.858,3.12,3.12,0,0,1,4.813,7.975Z" transform="translate(6.14 6.142)" fill="#2b2b39"/>
        <path id="Vector-3" data-name="Vector" d="M2.292,1.146A1.146,1.146,0,1,1,1.146,0,1.146,1.146,0,0,1,2.292,1.146Z" transform="translate(14.851 4.812)" fill="#2b2b39"/>
      </g>
    </g>
  </g>
</svg>
