<svg xmlns="http://www.w3.org/2000/svg" width="36" height="36" viewBox="0 0 36 36">
  <g id="Linkedin" transform="translate(-1269 -5682)">
    <circle id="Ellipse_25" data-name="Ellipse 25" cx="18" cy="18" r="18" transform="translate(1269 5682)" fill="#fff"/>
    <g id="Linkedin-2" data-name="Linkedin" transform="translate(1276 5689)">
      <path id="Vector" d="M4.011,2.006A2.006,2.006,0,1,1,2.006,0,2.006,2.006,0,0,1,4.011,2.006Z" transform="translate(2.562 2.586)" fill="#2b2b39"/>
      <path id="Vector-2" data-name="Vector" d="M5.63.275V11.4H9.085V5.9c0-1.452.273-2.858,2.073-2.858,1.776,0,1.8,1.66,1.8,2.95V11.4h3.457V5.3c0-3-.645-5.3-4.149-5.3A3.633,3.633,0,0,0,8.993,1.8H8.947V.275ZM0,.275H3.46V11.4H0Z" transform="translate(2.836 7.842)" fill="#2b2b39"/>
    </g>
  </g>
</svg>
