<svg xmlns="http://www.w3.org/2000/svg" width="34.001" height="27.142" viewBox="0 0 34.001 27.142">
  <g id="Icon" transform="translate(-232 -321)">
    <path id="Vector" d="M6.369,12.739A6.369,6.369,0,1,0,0,6.369,6.369,6.369,0,0,0,6.369,12.739Z" transform="translate(237.266 322.566)" fill="#fff"/>
    <path id="Vector-2" data-name="Vector" d="M17.164.175A7.988,7.988,0,0,1,11.635,2.38,7.988,7.988,0,0,1,6.106.175,6.558,6.558,0,0,0,5.373.023a2.468,2.468,0,0,0-.687,0,3.431,3.431,0,0,0-.647.183A4.268,4.268,0,0,0,3.21.589a3.894,3.894,0,0,0-1.111,1A8.718,8.718,0,0,0,1.021,3.608a14.294,14.294,0,0,0-.8,2.72,16.454,16.454,0,0,0-.215,2.5,9.2,9.2,0,0,0,.05,1.593,2.964,2.964,0,0,0,.5,1.31,4.369,4.369,0,0,0,1.31,1.194,5.084,5.084,0,0,0,2.04.68,26.946,26.946,0,0,0,3.283.116H16.08a26.946,26.946,0,0,0,3.283-.116,5.084,5.084,0,0,0,2.04-.68,4.369,4.369,0,0,0,1.31-1.194,2.964,2.964,0,0,0,.5-1.31,9.2,9.2,0,0,0,.05-1.593,16.454,16.454,0,0,0-.215-2.5,14.294,14.294,0,0,0-.8-2.72,8.718,8.718,0,0,0-1.078-2.024,3.894,3.894,0,0,0-1.111-1,4.268,4.268,0,0,0-.829-.381,3.431,3.431,0,0,0-.647-.183,2.468,2.468,0,0,0-.687,0A6.558,6.558,0,0,0,17.164.175Z" transform="translate(232 334.417)" fill="#fff"/>
    <path id="Vector-3" data-name="Vector" d="M1.08,11.074A6.369,6.369,0,1,0,0,2.95a6.355,6.355,0,0,1,2.075,4.7A6.341,6.341,0,0,1,1.08,11.074Z" transform="translate(249.344 321)" fill="#fff"/>
    <path id="Vector-4" data-name="Vector" d="M5.339.175A7.99,7.99,0,0,1,0,2.378l.229.274A8.717,8.717,0,0,1,1.307,4.676,14.29,14.29,0,0,1,2.1,7.4a16.448,16.448,0,0,1,.215,2.5,9.2,9.2,0,0,1-.05,1.593,2.963,2.963,0,0,1-.5,1.31,4.133,4.133,0,0,1-.909.923H4.254a26.967,26.967,0,0,0,3.285-.116,5.088,5.088,0,0,0,2.041-.68,4.37,4.37,0,0,0,1.31-1.194,2.963,2.963,0,0,0,.5-1.31,9.2,9.2,0,0,0,.05-1.593,16.448,16.448,0,0,0-.215-2.5,14.29,14.29,0,0,0-.8-2.72A8.717,8.717,0,0,0,9.347,1.585a3.9,3.9,0,0,0-1.111-1,4.27,4.27,0,0,0-.83-.381A3.434,3.434,0,0,0,6.759.025a2.47,2.47,0,0,0-.687,0A6.563,6.563,0,0,0,5.339.175Z" transform="translate(254.555 333.086)" fill="#fff"/>
  </g>
</svg>
