<svg xmlns="http://www.w3.org/2000/svg" width="24.283" height="23.403" viewBox="0 0 24.283 23.403">
  <g id="Star" transform="translate(-1.859 -1.875)">
    <g id="Star-2" data-name="Star">
      <path id="Vector" d="M11.857,18.236l5.516,3.495a.925.925,0,0,0,1.371-1.041l-1.594-6.27a.958.958,0,0,1,.31-.971l4.947-4.117a.948.948,0,0,0-.521-1.674l-6.46-.419a.921.921,0,0,1-.793-.585L12.226.587a.91.91,0,0,0-1.7,0L8.115,6.654a.921.921,0,0,1-.793.585l-6.46.419A.948.948,0,0,0,.342,9.333L5.288,13.45a.958.958,0,0,1,.31.971L4.121,20.235a1.11,1.11,0,0,0,1.646,1.249l5.126-3.248a.9.9,0,0,1,.965,0Z" transform="translate(2.625 2.625)" fill="none" stroke="#217bf4" stroke-linecap="round" stroke-linejoin="round" stroke-width="1.5"/>
    </g>
  </g>
</svg>
