<svg xmlns="http://www.w3.org/2000/svg" width="36" height="36" viewBox="0 0 36 36">
  <g id="Twitter" transform="translate(-1137 -5682)">
    <circle id="Ellipse_26" data-name="Ellipse 26" cx="18" cy="18" r="18" transform="translate(1137 5682)" fill="#fff"/>
    <g id="Frame" transform="translate(1144 5689)">
      <g id="Group">
        <path id="Vector" d="M17.915,2.61A4.179,4.179,0,0,0,19.747.3,8.344,8.344,0,0,1,17.1,1.316a4.17,4.17,0,0,0-7.1,3.8A11.829,11.829,0,0,1,1.414.763,4.171,4.171,0,0,0,2.7,6.325,4.15,4.15,0,0,1,.816,5.8c0,.017,0,.035,0,.052A4.169,4.169,0,0,0,4.158,9.942a4.176,4.176,0,0,1-1.882.071,4.171,4.171,0,0,0,3.892,2.894A8.36,8.36,0,0,1,.994,14.69,8.476,8.476,0,0,1,0,14.632,11.793,11.793,0,0,0,6.387,16.5,11.773,11.773,0,0,0,18.241,4.649q0-.271-.012-.539a8.468,8.468,0,0,0,2.079-2.157A8.331,8.331,0,0,1,17.915,2.61Z" transform="translate(0.848 2.521)" fill="#2b2b39"/>
      </g>
    </g>
  </g>
</svg>
